HIERARCHY
ROOT Hips
{
	OFFSET 0.000000 0.000000 0.000000
	CHANNELS 6 Xposition Yposition Zposition Zrotation Yrotation Xrotation 
	JOINT Spine1
	{
		OFFSET -0.013727 5.003763 -0.053727
		CHANNELS 3 Zrotation Yrotation Xrotation
		JOINT Spine2
		{
			OFFSET -0.000000 7.125302 -0.029825
			CHANNELS 3 Zrotation Yrotation Xrotation
			JOINT Chest
			{
				OFFSET -0.000001 7.550064 -0.815971
				CHANNELS 3 Zrotation Yrotation Xrotation
				JOINT Neck1
				{
					OFFSET -0.181677 26.311296 -0.553348
					CHANNELS 3 Zrotation Yrotation Xrotation
					JOINT Neck2
					{
						OFFSET -0.000003 7.709399 2.302586
						CHANNELS 3 Zrotation Yrotation Xrotation
						JOINT Head
						{
							OFFSET -0.000005 6.128914 1.953709
							CHANNELS 3 Zrotation Yrotation Xrotation
							JOINT HeadEnd
							{
								OFFSET 0.003598 16.065401 -1.835379
								CHANNELS 3 Zrotation Yrotation Xrotation
								End Site
								{
									OFFSET 0.000000 0.000000 0.000000
								}
							}
							JOINT Jaw
							{
								OFFSET 0.002637 0.475591 3.094941
								CHANNELS 3 Zrotation Yrotation Xrotation
								End Site
								{
									OFFSET 0.000000 0.000000 0.000000
								}
							}
							JOINT LeftEye
							{
								OFFSET 3.206381 5.380208 7.586883
								CHANNELS 3 Zrotation Yrotation Xrotation
								End Site
								{
									OFFSET 0.000000 0.000000 0.000000
								}
							}
							JOINT RightEye
							{
								OFFSET -3.222440 5.361867 7.558232
								CHANNELS 3 Zrotation Yrotation Xrotation
								End Site
								{
									OFFSET 0.000000 0.000000 0.000000
								}
							}
						}
					}
				}
				JOINT LeftShoulder
				{
					OFFSET 1.621652 23.237164 5.113412
					CHANNELS 3 Zrotation Yrotation Xrotation
					JOINT LeftArm
					{
						OFFSET 14.919845 -0.000000 -5.502326
						CHANNELS 3 Zrotation Yrotation Xrotation
						JOINT LeftForeArm
						{
							OFFSET 28.739309 0.000003 -0.002587
							CHANNELS 3 Zrotation Yrotation Xrotation
							JOINT LeftHand
							{
								OFFSET 27.093979 -0.000003 0.002608
								CHANNELS 3 Zrotation Yrotation Xrotation
								JOINT LeftHandThumb1
								{
									OFFSET 2.276480 -1.392046 3.191414
									CHANNELS 3 Zrotation Yrotation Xrotation
									JOINT LeftHandThumb2
									{
										OFFSET 4.012842 -1.828126 1.641655
										CHANNELS 3 Zrotation Yrotation Xrotation
										JOINT LeftHandThumb3
										{
											OFFSET 2.798515 0.000001 -0.000003
											CHANNELS 3 Zrotation Yrotation Xrotation
											JOINT LeftHandThumbEnd
											{
												OFFSET 3.180792 -0.000001 0.000003
												CHANNELS 3 Zrotation Yrotation Xrotation
												End Site
												{
													OFFSET 0.000000 0.000000 0.000000
												}
											}
										}
									}
								}
								JOINT LeftHandIndex1
								{
									OFFSET 3.247554 -0.531997 2.296170
									CHANNELS 3 Zrotation Yrotation Xrotation
									JOINT LeftHandIndex2
									{
										OFFSET 6.364579 0.012061 0.178600
										CHANNELS 3 Zrotation Yrotation Xrotation
										JOINT LeftHandIndex3
										{
											OFFSET 3.662367 0.000001 -0.000001
											CHANNELS 3 Zrotation Yrotation Xrotation
											JOINT LeftHandIndex4
											{
												OFFSET 2.329243 0.000002 0.000005
												CHANNELS 3 Zrotation Yrotation Xrotation
												JOINT LeftHandIndexEnd
												{
													OFFSET 2.759619 -0.180539 -0.113024
													CHANNELS 3 Zrotation Yrotation Xrotation
													End Site
													{
														OFFSET 0.000000 0.000000 0.000000
													}
												}
											}
										}
									}
								}
								JOINT LeftHandMiddle1
								{
									OFFSET 3.163499 0.240982 1.000333
									CHANNELS 3 Zrotation Yrotation Xrotation
									JOINT LeftHandMiddle2
									{
										OFFSET 6.190778 -0.259276 -1.002549
										CHANNELS 3 Zrotation Yrotation Xrotation
										JOINT LeftHandMiddle3
										{
											OFFSET 4.356522 -0.000006 0.000001
											CHANNELS 3 Zrotation Yrotation Xrotation
											JOINT LeftHandMiddle4
											{
												OFFSET 2.996875 -0.000006 0.000000
												CHANNELS 3 Zrotation Yrotation Xrotation
												JOINT LeftHandMiddleEnd
												{
													OFFSET 2.304294 -0.294571 -0.031740
													CHANNELS 3 Zrotation Yrotation Xrotation
													End Site
													{
														OFFSET 0.000000 0.000000 0.000000
													}
												}
											}
										}
									}
								}
								JOINT LeftHandRing1
								{
									OFFSET 2.882641 -0.053650 -0.322544
									CHANNELS 3 Zrotation Yrotation Xrotation
									JOINT LeftHandRing2
									{
										OFFSET 5.854543 -0.486203 -1.373841
										CHANNELS 3 Zrotation Yrotation Xrotation
										JOINT LeftHandRing3
										{
											OFFSET 4.350580 0.000001 0.000005
											CHANNELS 3 Zrotation Yrotation Xrotation
											JOINT LeftHandRing4
											{
												OFFSET 2.651324 0.000007 0.000003
												CHANNELS 3 Zrotation Yrotation Xrotation
												JOINT LeftHandRingEnd
												{
													OFFSET 1.936111 0.077685 -0.000071
													CHANNELS 3 Zrotation Yrotation Xrotation
													End Site
													{
														OFFSET 0.000000 0.000000 0.000000
													}
												}
											}
										}
									}
								}
								JOINT LeftHandPinky1
								{
									OFFSET 2.865499 -0.310004 -1.600377
									CHANNELS 3 Zrotation Yrotation Xrotation
									JOINT LeftHandPinky2
									{
										OFFSET 5.087854 -1.331141 -1.771232
										CHANNELS 3 Zrotation Yrotation Xrotation
										JOINT LeftHandPinky3
										{
											OFFSET 3.070976 0.000003 0.000001
											CHANNELS 3 Zrotation Yrotation Xrotation
											JOINT LeftHandPinky4
											{
												OFFSET 1.549666 -0.000001 0.000001
												CHANNELS 3 Zrotation Yrotation Xrotation
												JOINT LeftHandPinkyEnd
												{
													OFFSET 1.944896 -0.157801 0.057219
													CHANNELS 3 Zrotation Yrotation Xrotation
													End Site
													{
														OFFSET 0.000000 0.000000 0.000000
													}
												}
											}
										}
									}
								}
							}
						}
					}
				}
				JOINT RightShoulder
				{
					OFFSET -1.380118 23.180307 5.214158
					CHANNELS 3 Zrotation Yrotation Xrotation
					JOINT RightArm
					{
						OFFSET -15.037197 0.000012 -5.545604
						CHANNELS 3 Zrotation Yrotation Xrotation
						JOINT RightForeArm
						{
							OFFSET -28.736639 0.000004 -0.002597
							CHANNELS 3 Zrotation Yrotation Xrotation
							JOINT RightHand
							{
								OFFSET -27.133617 -0.000001 0.002612
								CHANNELS 3 Zrotation Yrotation Xrotation
								JOINT RightHandThumb1
								{
									OFFSET -2.274037 -1.383990 3.163128
									CHANNELS 3 Zrotation Yrotation Xrotation
									JOINT RightHandThumb2
									{
										OFFSET -4.011430 -1.827467 1.640914
										CHANNELS 3 Zrotation Yrotation Xrotation
										JOINT RightHandThumb3
										{
											OFFSET -2.794934 -0.000004 -0.000003
											CHANNELS 3 Zrotation Yrotation Xrotation
											JOINT RightHandThumbEnd
											{
												OFFSET -3.183855 0.000002 -0.000001
												CHANNELS 3 Zrotation Yrotation Xrotation
												End Site
												{
													OFFSET 0.000000 0.000000 0.000000
												}
											}
										}
									}
								}
								JOINT RightHandIndex1
								{
									OFFSET -3.253270 -0.520059 2.282867
									CHANNELS 3 Zrotation Yrotation Xrotation
									JOINT RightHandIndex2
									{
										OFFSET -6.341918 0.012473 0.178265
										CHANNELS 3 Zrotation Yrotation Xrotation
										JOINT RightHandIndex3
										{
											OFFSET -3.654875 -0.000008 -0.000001
											CHANNELS 3 Zrotation Yrotation Xrotation
											JOINT RightHandIndex4
											{
												OFFSET -2.327586 -0.000000 0.000001
												CHANNELS 3 Zrotation Yrotation Xrotation
												JOINT RightHandIndexEnd
												{
													OFFSET -2.761789 -0.180657 -0.113080
													CHANNELS 3 Zrotation Yrotation Xrotation
													End Site
													{
														OFFSET 0.000000 0.000000 0.000000
													}
												}
											}
										}
									}
								}
								JOINT RightHandMiddle1
								{
									OFFSET -3.168106 0.246593 1.001032
									CHANNELS 3 Zrotation Yrotation Xrotation
									JOINT RightHandMiddle2
									{
										OFFSET -6.180831 -0.258835 -1.000897
										CHANNELS 3 Zrotation Yrotation Xrotation
										JOINT RightHandMiddle3
										{
											OFFSET -4.348905 -0.000000 -0.000000
											CHANNELS 3 Zrotation Yrotation Xrotation
											JOINT RightHandMiddle4
											{
												OFFSET -3.000243 -0.000004 -0.000003
												CHANNELS 3 Zrotation Yrotation Xrotation
												JOINT RightHandMiddleEnd
												{
													OFFSET -2.302518 -0.294372 -0.031706
													CHANNELS 3 Zrotation Yrotation Xrotation
													End Site
													{
														OFFSET 0.000000 0.000000 0.000000
													}
												}
											}
										}
									}
								}
								JOINT RightHandRing1
								{
									OFFSET -2.885695 -0.067952 -0.308858
									CHANNELS 3 Zrotation Yrotation Xrotation
									JOINT RightHandRing2
									{
										OFFSET -5.854196 -0.486133 -1.373731
										CHANNELS 3 Zrotation Yrotation Xrotation
										JOINT RightHandRing3
										{
											OFFSET -4.338814 -0.000004 -0.000000
											CHANNELS 3 Zrotation Yrotation Xrotation
											JOINT RightHandRing4
											{
												OFFSET -2.654905 -0.000005 0.000003
												CHANNELS 3 Zrotation Yrotation Xrotation
												JOINT RightHandRingEnd
												{
													OFFSET -1.933570 0.077524 -0.000052
													CHANNELS 3 Zrotation Yrotation Xrotation
													End Site
													{
														OFFSET 0.000000 0.000000 0.000000
													}
												}
											}
										}
									}
								}
								JOINT RightHandPinky1
								{
									OFFSET -2.866430 -0.342798 -1.584145
									CHANNELS 3 Zrotation Yrotation Xrotation
									JOINT RightHandPinky2
									{
										OFFSET -5.091370 -1.332054 -1.772385
										CHANNELS 3 Zrotation Yrotation Xrotation
										JOINT RightHandPinky3
										{
											OFFSET -3.062666 -0.000007 0.000000
											CHANNELS 3 Zrotation Yrotation Xrotation
											JOINT RightHandPinky4
											{
												OFFSET -1.546526 0.000006 -0.000002
												CHANNELS 3 Zrotation Yrotation Xrotation
												JOINT RightHandPinkyEnd
												{
													OFFSET -1.945123 -0.157721 0.057212
													CHANNELS 3 Zrotation Yrotation Xrotation
													End Site
													{
														OFFSET 0.000000 0.000000 0.000000
													}
												}
											}
										}
									}
								}
							}
						}
					}
				}
			}
		}
	}
	JOINT LeftLeg
	{
		OFFSET 10.043214 -8.434526 2.595654
		CHANNELS 3 Zrotation Yrotation Xrotation
		JOINT LeftShin
		{
			OFFSET -0.000001 -43.221752 -0.802912
			CHANNELS 3 Zrotation Yrotation Xrotation
			JOINT LeftFoot
			{
				OFFSET 0.000002 -42.155094 -3.481524
				CHANNELS 3 Zrotation Yrotation Xrotation
				JOINT LeftToeBase
				{
					OFFSET -0.000000 -5.059475 13.231529
					CHANNELS 3 Zrotation Yrotation Xrotation
					JOINT LeftToeEnd
					{
						OFFSET -0.009607 -1.647615 6.513017
						CHANNELS 3 Zrotation Yrotation Xrotation
						End Site
						{
							OFFSET 0.000000 0.000000 0.000000
						}
					}
				}
			}
		}
	}
	JOINT RightLeg
	{
		OFFSET -10.047277 -8.295260 2.620317
		CHANNELS 3 Zrotation Yrotation Xrotation
		JOINT RightShin
		{
			OFFSET 0.000001 -43.362209 -0.805556
			CHANNELS 3 Zrotation Yrotation Xrotation
			JOINT RightFoot
			{
				OFFSET 0.000002 -42.117393 -3.478399
				CHANNELS 3 Zrotation Yrotation Xrotation
				JOINT RightToeBase
				{
					OFFSET -0.000001 -5.079609 13.284196
					CHANNELS 3 Zrotation Yrotation Xrotation
					JOINT RightToeEnd
					{
						OFFSET 0.009532 -1.634383 6.460591
						CHANNELS 3 Zrotation Yrotation Xrotation
						End Site
						{
							OFFSET 0.000000 0.000000 0.000000
						}
					}
				}
			}
		}
	}
}
MOTION
Frames: 4
Frame Time: 0.033333
28.339533 115.530334 333.600189 29.289772 -24.249790 -43.999039 -2.189242 3.413357 11.279090 0.299736 6.874890 -0.211876 -4.693563 8.254304 12.514863 -16.770020 19.893713 23.871048 0.355700 -1.481085 -3.597294 1.172188 2.400594 -2.030791 0.000076 -0.000023 0.000006 -0.036434 -0.019411 -0.072829 0.493747 -3.747385 -10.628581 -0.567269 3.689859 -10.670478 -16.403700 7.143613 13.835324 -33.769749 14.938912 -23.893845 -4.927313 -71.515213 5.429784 -12.779146 3.322580 -9.872078 -5.882100 9.861277 0.702591 -10.936858 -0.360575 7.156195 -0.000002 8.774814 -0.000002 -16.759087 16.574224 6.262837 -1.844030 2.498502 -2.507275 -10.163588 4.678940 4.621102 -20.975992 -0.000006 0.000002 -21.226250 2.451690 -3.593993 0.000000 -0.000005 -0.000002 -1.362682 2.240797 -0.746324 -21.334892 0.584906 3.008320 -13.821197 -0.000002 0.000002 -23.887131 -0.249080 -0.839479 -62.342445 2.788039 -0.474217 -0.294023 1.679687 0.833257 -14.218190 0.093215 1.300579 -34.211998 -0.287568 0.967169 -20.033176 0.964533 1.212841 0.000001 0.000001 0.000000 -3.440385 0.788231 0.501654 -15.928165 -3.167308 2.999705 -6.338815 -0.000002 0.000001 -18.123413 3.648178 -4.905662 -0.000004 0.000002 -0.000001 -7.207713 36.703976 6.939625 27.176292 44.681610 -0.581433 171.892303 68.833557 174.434982 -15.697580 7.347538 6.663746 2.243540 -5.255032 -3.180154 14.282875 -0.826594 6.952496 -0.000003 -12.690593 0.000000 16.038681 -18.122396 3.341698 1.665664 -1.955920 -2.878296 4.727794 -4.170583 4.993918 11.020513 0.000003 -0.000000 12.109032 -3.735711 -2.866779 -0.000000 0.000000 0.000000 1.291986 -1.928547 -1.498088 14.800114 0.567468 3.865604 14.242554 -1.341735 -6.660647 19.631939 0.143925 -0.648242 50.805626 -1.131547 -7.722796 0.353028 -1.511149 -0.031939 20.222769 3.684305 2.316628 18.787245 0.000004 -0.000000 10.751610 -0.479868 1.397904 0.000001 0.000000 -0.000000 3.273803 0.305947 -0.580110 21.486794 11.830362 2.266130 8.162916 0.000002 0.000000 18.399050 -3.798980 -4.940567 0.000003 0.000000 -0.000000 -0.666708 23.169704 -73.813660 -1.300791 -1.015425 49.566994 -37.721413 12.958536 18.863739 1.747686 -1.679700 -1.808376 0.000001 0.000001 0.000002 -22.457462 9.480689 11.423722 0.562912 0.816059 27.818855 8.628630 -11.366736 -0.511416 -1.483477 0.654299 -2.949589 0.000000 0.000001 -0.000001 
28.130188 110.162399 339.479919 30.704857 -27.083872 -43.656494 -1.286440 3.074024 9.264479 0.093174 6.712631 -0.812858 -3.873942 8.071382 11.329459 -18.394257 21.872040 22.740400 0.546494 -0.939381 -3.735237 1.100480 3.337215 -0.938527 0.000077 -0.000022 0.000006 -0.052255 0.072371 0.016568 0.439574 -3.721157 -10.569889 -0.543421 3.844528 -10.587689 -14.196813 8.537056 14.327146 -37.452126 18.935299 -25.283688 -5.979499 -77.154625 6.914050 -12.301015 4.483537 -6.303698 -5.882100 9.861275 0.702589 -10.936858 -0.360577 7.156197 0.000001 8.774812 -0.000001 -16.814747 16.757858 6.369792 -1.844031 2.498502 -2.507277 -10.163588 4.678939 4.621103 -20.975994 -0.000004 0.000000 -21.226248 2.451691 -3.593994 0.000001 -0.000006 -0.000003 -1.362680 2.240795 -0.746322 -21.334892 0.584907 3.008318 -13.821195 -0.000003 0.000002 -23.887129 -0.249080 -0.839481 -63.436245 3.109989 -0.283991 -0.294024 1.679688 0.833256 -14.218192 0.093214 1.300577 -34.211998 -0.287568 0.967168 -20.033180 0.964534 1.212843 0.000001 0.000001 0.000000 -3.440383 0.788231 0.501655 -15.928165 -3.167308 2.999702 -6.338815 -0.000001 0.000001 -18.123411 3.648176 -4.905663 -0.000004 0.000002 -0.000002 -8.595114 35.076359 8.192692 30.790648 37.730797 1.994752 173.773407 68.579140 175.088928 -14.155489 10.123714 5.572100 2.243540 -5.255033 -3.180155 14.282877 -0.826594 6.952496 -0.000003 -12.690590 0.000001 15.897193 -17.628342 2.886260 1.665665 -1.955919 -2.878296 4.727796 -4.170584 4.993919 11.020511 0.000003 -0.000001 12.109031 -3.735710 -2.866778 0.000000 0.000000 -0.000000 1.291984 -1.928548 -1.498088 14.800114 0.567468 3.865604 14.242554 -1.341734 -6.660648 19.631939 0.143926 -0.648243 50.144680 -0.552477 -7.319479 0.353028 -1.511149 -0.031939 20.222769 3.684305 2.316627 18.787245 0.000004 0.000000 10.751610 -0.479868 1.397904 0.000000 -0.000000 0.000000 3.273804 0.305947 -0.580110 21.486792 11.830363 2.266130 8.162916 0.000001 -0.000000 18.399054 -3.798980 -4.940567 0.000003 0.000000 -0.000001 2.038359 21.669769 -64.694313 -1.383470 -1.926310 42.680401 -35.976501 10.588986 31.035824 1.712089 -1.709847 -1.424569 0.000000 0.000000 0.000002 -21.955864 17.119690 12.366769 0.342572 0.867167 18.301933 1.273562 -15.208267 11.236073 -1.228235 0.517627 -4.298451 -0.000000 0.000001 -0.000001 
27.615950 103.527626 344.832245 31.181185 -30.148548 -44.655544 -0.069225 2.693801 8.208225 0.017933 6.398816 -1.237707 -2.750640 7.158243 11.057801 -18.879566 22.549313 21.290640 0.459439 0.254409 -3.775473 0.301106 4.145382 -1.080409 0.000077 -0.000022 0.000006 -0.071402 0.156380 0.076582 0.427297 -3.639341 -10.335382 -0.575290 3.919824 -10.370656 -11.734939 9.254666 14.520505 -41.322548 23.775770 -27.038019 -8.927890 -83.420784 9.298835 -13.815084 6.025008 -6.771400 -5.882101 9.861278 0.702591 -10.936860 -0.360575 7.156196 0.000000 8.774814 -0.000002 -16.826355 17.344948 6.523348 -1.844031 2.498502 -2.507275 -10.163590 4.678940 4.621103 -20.975996 -0.000001 0.000003 -21.226255 2.451693 -3.593992 0.000002 -0.000005 -0.000001 -1.362680 2.240795 -0.746321 -21.334887 0.584910 3.008318 -13.821197 -0.000002 0.000001 -23.887129 -0.249079 -0.839481 -63.994900 3.295061 -0.101627 -0.294025 1.679687 0.833253 -14.218192 0.093214 1.300578 -34.211998 -0.287562 0.967165 -20.033176 0.964537 1.212840 -0.000000 0.000000 -0.000001 -3.440386 0.788232 0.501656 -15.928165 -3.167304 2.999705 -6.338818 -0.000001 -0.000001 -18.123415 3.648176 -4.905662 -0.000003 -0.000000 -0.000002 -8.789479 33.170044 9.621885 33.114422 30.643379 5.426858 176.321548 69.993011 177.215439 -10.984737 12.179245 1.094434 2.243540 -5.255034 -3.180156 14.282873 -0.826595 6.952496 0.000000 -12.690592 0.000000 15.683657 -17.112228 2.574971 1.665665 -1.955919 -2.878297 4.727793 -4.170582 4.993918 11.020512 0.000004 -0.000001 12.109031 -3.735710 -2.866780 -0.000000 0.000000 0.000000 1.291985 -1.928548 -1.498088 14.800107 0.567466 3.865602 14.242553 -1.341736 -6.660651 19.631935 0.143927 -0.648245 49.866302 -0.208693 -6.479286 0.353029 -1.511150 -0.031940 20.222769 3.684306 2.316627 18.787243 0.000004 -0.000001 10.751610 -0.479867 1.397903 -0.000000 0.000000 0.000000 3.273805 0.305947 -0.580110 21.486788 11.830361 2.266130 8.162916 0.000001 -0.000000 18.399052 -3.798980 -4.940569 0.000003 0.000000 -0.000001 6.156083 18.943813 -55.019855 -1.519949 -2.781513 39.576527 -31.159252 6.806690 44.423229 1.702918 -1.884560 -1.013433 -0.000000 -0.000001 0.000002 -20.736134 24.097399 12.344722 0.310249 0.948468 23.320320 1.398913 -13.510827 0.947770 -1.325681 0.539920 -5.651341 0.000000 0.000001 -0.000001 
26.872257 97.042595 350.688782 29.169489 -33.118267 -45.663891 1.863560 1.911641 7.540775 0.210263 5.451259 -1.355504 -0.953852 6.012667 12.132012 -19.166918 22.184534 19.923197 0.737778 1.485024 -3.765636 -0.950120 4.802989 -2.288793 0.000077 -0.000022 0.000006 -0.066867 0.144352 0.056759 0.538432 -3.625544 -10.168698 -0.684689 3.880650 -10.233722 -11.033751 9.970212 14.453298 -44.951916 27.776041 -28.759029 -1.481030 -87.963463 0.659083 -15.282940 6.077616 -10.070079 -5.882102 9.861278 0.702591 -10.936858 -0.360575 7.156196 -0.000000 8.774814 -0.000002 -16.694069 17.917149 6.568982 -1.844031 2.498502 -2.507275 -10.163590 4.678941 4.621102 -20.975998 -0.000001 0.000001 -21.226255 2.451696 -3.593994 0.000000 -0.000008 -0.000002 -1.362681 2.240797 -0.746325 -21.334887 0.584908 3.008321 -13.821197 -0.000001 0.000002 -23.887133 -0.249079 -0.839482 -63.881832 3.178540 -0.191136 -0.294024 1.679686 0.833254 -14.218194 0.093216 1.300579 -34.212002 -0.287561 0.967169 -20.033180 0.964536 1.212841 0.000001 0.000000 -0.000002 -3.440385 0.788233 0.501655 -15.928169 -3.167306 2.999702 -6.338817 0.000000 0.000001 -18.123415 3.648177 -4.905662 -0.000005 0.000003 -0.000000 -5.807492 29.944746 12.002297 34.122272 24.371004 10.888242 -179.080963 73.628098 -177.967239 -6.039616 12.891026 -4.035705 2.243540 -5.255033 -3.180155 14.282875 -0.826592 6.952496 -0.000002 -12.690591 -0.000000 16.249992 -16.839174 2.216520 1.665665 -1.955920 -2.878297 4.727794 -4.170583 4.993919 11.020510 0.000003 -0.000002 12.109032 -3.735710 -2.866781 0.000000 0.000001 0.000000 1.291985 -1.928546 -1.498088 14.800109 0.567467 3.865602 14.242553 -1.341734 -6.660648 19.631937 0.143926 -0.648243 50.694874 0.176064 -5.818284 0.353030 -1.511148 -0.031940 20.222765 3.684306 2.316627 18.787243 0.000005 -0.000001 10.751609 -0.479869 1.397902 0.000000 -0.000000 -0.000000 3.273804 0.305947 -0.580111 21.486788 11.830363 2.266132 8.162916 0.000002 0.000000 18.399052 -3.798979 -4.940567 0.000004 0.000000 0.000000 10.630431 14.941375 -44.626350 -1.749818 -3.245359 36.832230 -27.943308 6.069250 52.997799 1.790762 -2.153148 -0.667709 -0.000000 -0.000002 0.000002 -17.057240 27.584906 12.577139 0.163146 0.499316 36.397610 3.971998 -10.546115 -18.881575 -1.428975 0.797113 -3.019635 0.000000 0.000000 -0.000001 
